<svg width="24" height="24" viewBox="0 0 24 24" fill="none" xmlns="http://www.w3.org/2000/svg">
<path d="M9.75 12C9.75 13.2405 10.7595 14.25 12 14.25C13.2405 14.25 14.25 13.2405 14.25 12C14.25 10.7595 13.2405 9.75 12 9.75C10.7595 9.75 9.75 10.7595 9.75 12Z" fill="black" fill-opacity="0.6"/>
<path d="M9.75 19.5C9.75 20.7405 10.7595 21.75 12 21.75C13.2405 21.75 14.25 20.7405 14.25 19.5C14.25 18.2595 13.2405 17.25 12 17.25C10.7595 17.25 9.75 18.2595 9.75 19.5Z" fill="black" fill-opacity="0.6"/>
<path d="M9.75 4.5C9.75 5.7405 10.7595 6.75 12 6.75C13.2405 6.75 14.25 5.7405 14.25 4.5C14.25 3.2595 13.2405 2.25 12 2.25C10.7595 2.25 9.75 3.2595 9.75 4.5Z" fill="black" fill-opacity="0.6"/>
</svg>
